<svg width="644" height="649" viewBox="0 0 644 649" fill="none" xmlns="http://www.w3.org/2000/svg">
<circle cx="133" cy="132" r="42" fill="#003276"/>
<circle cx="256" cy="132" r="42" fill="#3A8CFB"/>
<circle cx="391" cy="132" r="42" fill="#3A8CFB"/>
<circle cx="514" cy="132" r="42" fill="#003276"/>
<circle cx="514" cy="256" r="42" fill="#3A8CFB"/>
<circle cx="514" cy="388" r="42" fill="#3A8CFB"/>
<circle cx="514" cy="512" r="42" fill="#003276"/>
<circle cx="391" cy="512" r="42" fill="#3A8CFB"/>
<circle cx="256" cy="512" r="42" fill="#3A8CFB"/>
<circle cx="133" cy="512" r="42" fill="#003276"/>
<circle cx="133" cy="388" r="42" fill="#3A8CFB"/>
<circle cx="133" cy="256" r="42" fill="#3A8CFB"/>
<circle cx="256.5" cy="260.5" r="56.5" fill="#AFCBF0"/>
<circle cx="256.5" cy="393.5" r="56.5" fill="#AFCBF0"/>
<circle cx="390.5" cy="393.5" r="56.5" fill="#AFCBF0"/>
<circle cx="394.5" cy="260.5" r="56.5" fill="#AFCBF0"/>
<circle cx="33" cy="256" r="33" fill="#003276"/>
<circle cx="33" cy="388" r="33" fill="#003276"/>
<circle cx="256" cy="33" r="33" fill="#003276"/>
<circle cx="391" cy="33" r="33" fill="#003276"/>
<circle cx="611" cy="256" r="33" fill="#003276"/>
<circle cx="611" cy="388" r="33" fill="#003276"/>
<circle cx="391" cy="616" r="33" fill="#003276"/>
<circle cx="256" cy="616" r="33" fill="#003276"/>
</svg>
